<svg width="428" height="846" viewBox="0 0 428 846" fill="none" xmlns="http://www.w3.org/2000/svg">
<rect width="428" height="846" fill="#2F5FFF"/>
<path d="M106.265 394.643H120.152V366.086L133.785 351.552L162.58 394.643H179.398L143.468 341.736L179.016 304H159.649L120.152 346.325V304H106.265V394.643Z" fill="white"/>
<path d="M243.617 394.643H258.269L225.27 304H214.695L181.696 394.643H196.348L204.375 371.823H235.718L243.617 394.643ZM209.089 358.309L220.046 326.82L231.004 358.309H209.089Z" fill="white"/>
<path d="M196.348 398.099L166.695 446.053H152.878L181.696 398.099H196.348Z" fill="white"/>
<path d="M71.7367 542.117H86.5162L100.659 536.89L107.029 529.496L110.342 522.484V509.736L106.265 499.664L95.9445 492.525L70.2078 485.386L64.4744 481.306L63.4551 479.394L62.4358 474.549L63.8373 469.45L67.9144 465.243L74.1575 463.203H83.5858L93.906 465.88L102.442 470.852L109.832 459.251L100.022 453.132L85.6244 449.434H72.119L60.1425 453.387L51.7334 462.183L48.166 473.402L49.9497 484.366L54.2816 491.25L64.4744 498.389L89.1918 505.274L94.1608 507.951L96.5816 512.795V519.17L95.0527 522.229L92.7593 525.034L84.3503 528.349H74.2849L64.2196 525.416L59.378 522.229L55.9379 517.895L46 527.456L49.9497 532.428L57.5943 537.783L71.7367 542.117Z" fill="white"/>
<path d="M180.234 541.097H194.886L166.695 450.454H151.312L118.313 541.097H132.965L140.992 518.277H172.335L180.234 541.097ZM145.706 504.764L156.663 473.274L167.62 504.764H145.706Z" fill="white"/>
<path d="M208.012 541.097H221.9V483.856L243.687 531.408H256.3L277.96 483.983V541.097H291.848V450.454H278.725L249.93 513.05L221.135 450.454H208.012V541.097Z" fill="white"/>
<path d="M366.745 541.097H381.397L348.398 450.454H337.823L304.824 541.097H319.476L327.502 518.277H358.845L366.745 541.097ZM332.217 504.764L343.174 473.274L354.131 504.764H332.217Z" fill="white"/>
</svg>
