<svg width="475" height="580" viewBox="0 0 475 580" fill="none" xmlns="http://www.w3.org/2000/svg">
<rect width="474.895" height="580" fill="#2F5FFF"/>
<path d="M94.8026 252.029H113.193V214.214L131.245 194.969L169.375 252.029H191.645L144.068 181.97L191.139 132H165.495L113.193 188.047V132H94.8026V252.029Z" fill="white"/>
<path d="M276.685 252.029H296.087L252.39 132H238.386L194.689 252.029H214.091L224.72 221.811H266.224L276.685 252.029ZM230.963 203.916L245.472 162.218L259.982 203.916H230.963Z" fill="white"/>
<path d="M214.091 256.606L174.824 320.107H156.528L194.689 256.606H214.091Z" fill="white"/>
<path d="M49.0806 447.315H68.6516L87.3791 440.393L95.8149 430.602L100.202 421.317V404.435L94.8026 391.099L81.1366 381.645L47.056 372.191L39.4638 366.789L38.1141 364.257L36.7643 357.842L38.6202 351.089L44.0191 345.518L52.2862 342.817H64.7712L78.4372 346.362L89.7411 352.946L99.5266 337.583L86.5355 329.48L67.4706 324.584H49.5867L33.7275 329.818L22.5922 341.466L17.8682 356.322L20.2302 370.84L25.9665 379.957L39.4638 389.41L72.1947 398.527L78.7746 402.072L81.9802 408.487V416.928L79.9556 420.979L76.9187 424.693L65.7835 429.083H52.4549L39.1264 425.2L32.7152 420.979L28.1598 415.24L15 427.901L20.2302 434.485L30.3531 441.575L49.0806 447.315Z" fill="white"/>
<path d="M192.753 445.964H212.155L174.824 325.935H154.454L110.757 445.964H130.159L140.788 415.746H182.292L192.753 445.964ZM147.031 397.851L161.54 356.153L176.05 397.851H147.031Z" fill="white"/>
<path d="M229.537 445.964H247.927V370.165L276.777 433.134H293.48L322.162 370.334V445.964H340.552V325.935H323.174L285.044 408.825L246.914 325.935H229.537V445.964Z" fill="white"/>
<path d="M439.73 445.964H459.133L415.435 325.935H401.432L357.734 445.964H377.137L387.766 415.746H429.27L439.73 445.964ZM394.008 397.851L408.518 356.153L423.027 397.851H394.008Z" fill="white"/>
</svg>
